<svg xmlns="http://www.w3.org/2000/svg" xml:space="preserve" width="270" height="48" viewBox="0 0 71.44 12.7">
  <g transform="matrix(.093 .002 -.002 .093 .09 .1)">
    <g transform="matrix(.265 0 0 .265 1.16 -2.15)">
      <ellipse cx="380.02" cy="223.45" fill="#1e7be8" rx="130.88" ry="123.9"/>
      <ellipse cx="341.69" cy="385.31" fill="#1e7be8" rx="130.88" ry="123.9"/>
      <ellipse cx="170.42" cy="389.69" fill="#1e7be8" rx="130.88" ry="123.9"/>
      <ellipse cx="127.95" cy="223.3" fill="#1e7be8" rx="130.88" ry="123.9"/>
      <ellipse cx="251.5" cy="121.95" fill="#1e7be8" rx="130.88" ry="123.9"/>
      <ellipse cx="127.2" cy="448.92" fill="none" rx="3.02" ry="13.61" transform="rotate(-1.3)"/>
    </g>
    <path fill="#fff" d="M66.83 43.8C51.47 43.8 39 56.03 39 71.14c0 15.1 12.46 27.35 27.82 27.35s27.81-12.24 27.81-27.35c0-15.1-12.45-27.36-27.81-27.36z"/>
    <ellipse cx="71.79" cy="65.78" rx="16.52" ry="16.71"/>
  </g>
  <path fill="#4b5563" d="M19.15 3.65q.28.03.94.39.19.16-.2.3l-.02.86q.9-.09.96-.14l.1-.11q.3.1.61.3.11.06.11.2 0 .22-.33.19-.52-.06-1.45.03l.02 1.6 1.4-.12.22-.19q.39.08.74.33.06.06.06.2 0 .19-.25.19-.4-.06-.96-.06-.47 0-1.2.06l.08 2.17q-.03.11-.2.11-.22 0-.4-.16-.12-.11-.12-.25.11-.66.11-1.82-1.56.14-2.41.39-.14.22-.33.05-.3-.27-.47-.5-.08-.05-.03-.32.08-.09.11-.03.11.2.25.22.14.05.27.03.5-.03 1-.09v-.46q0-.75-.06-1.13-.2.02-.3.05-.11.11-.28-.05-.25-.22-.38-.42-.06-.05 0-.27.05-.11.08 0 .16.22.47.22.38 0 2.08-.17l-.05-.99q0-.2-.41-.3-.11 0-.03-.14.16-.2.27-.17zm.22 2.04q-.71.06-1.2.14.4.2.13.3-.05.78-.05 1.3l1.15-.11q0-.91-.03-1.63zm6.95-2.04q.46.09.02.42v1.7h.97v-2l.6.05q.47.08.03.41v1.55h.46l.44-.45.52.42q.11.1-.05.2h-1.37V8.3l-.14.08q-.41.17-.5 0v-.52h-.96v.63l-.13.09q-.41.16-.5 0V5.94H24.7V9.3H28l.54-.55.63.53q.11.1-.02.19H24.7v.36l-.14.08q-.41.17-.5 0V5.94h-1.1v-.16h1.1v-1.9l.61.05q.5.08.03.41v1.44h1.01V3.6Zm.02 4.05h.97V5.94h-.97Zm9.37-3.41q.22.27-.2.36v2.09l-.13.08q-.33.17-.42-.02v-.36h-1.61q1.12 1.24 3.07 1.54-.5.3-.55.6-.74-.21-1.56-.85v2.18l-.14.08q-.33.17-.41-.03V7.43l.19-.03q-.28-.25-.63-.74-.41.41-.83.77l.28.05q.3.14-.14.3v.67q0 .58-.44 1.05-.52.5-1.56.69-.22-.03-.03-.17.74-.25 1.1-.66.38-.44.38-1.16v-.44q-1.04.69-1.9.94-.21.02-.05-.11 1.82-1.02 2.5-2.15h-1.2v.38l-.14.09q-.33.16-.42-.03V3.82l.83.33h3.16l.32-.39zm-2.25.9h1.5v-.88h-1.5Zm-2.04 1.08h1.49v-.9h-1.49Zm0-1.07h1.49V4.3h-1.49Zm2.04 1.07h1.5v-.9h-1.5Zm4-1.13q.03-.14.09 0 .1.36.13.86 0 .96-.6.96-.22 0-.22-.3 0-.2.16-.39.44-.47.44-1.13zm1.02-1.49q.52.17.03.42v.85q.76.17.82.64.03.4-.22.4-.2 0-.22-.13-.1-.47-.38-.77v4.88l-.14.08q-.41.17-.5 0V3.6Zm4.2 3.31q.22.28-.2.36v2.31q0 .3-.57.47-.2.03-.2-.1l-.02-.26-.71-.24q-.14-.11.05-.11h.2q.7 0 .7-.11v-.7h-1.86v1.36l-.14.08q-.33.17-.4-.03V6.52l.6.3h1.7l.33-.38ZM41.22 3.6q.53.16.03.41v.5h.99l.44-.44.52.41q.11.11-.05.2h-1.9v.6h.6l.44-.44.53.41q.1.11-.06.2h-1.5v.68h1.17l.44-.44.52.42q.11.1-.05.19h-4.56v-.17h1.84v-.69h-1.2v-.16h1.2v-.6h-1.65V4.5h1.65v-.97Zm-1.15 4.82h1.87v-.66h-1.87zm0-.83h1.87V7h-1.87zm8.24-3.96q.35.13-.09.3v.83h.2l.35-.36.44.38q.09.09-.05.14h-.94v1.1h.25q.6-.71 1.3-1.93l.49.3q.38.31-.17.34-.47.66-1.01 1.3h.54l.44-.45.53.42q.1.1-.06.19h-1.6q-.49.52-1 .96h1.28l.33-.38.52.52q.22.28-.19.36v2.18l-.14.08q-.33.17-.4-.03v-.27H47.8v.35l-.13.09q-.33.16-.42-.03V7.68q-.38.27-.71.44.2.33.16.63-.02.33-.3.33-.22 0-.24-.41-.06-.6-.22-1-.09-.19.08-.08.25.17.46.45.33-.25.77-.7V6.8l.36.16q.33-.33.71-.77h-2v-.17h1.35v-1.1h-1.13v-.16h1.13V3.54Zm-2.42.35q.22.17-.22.25l-.8.8q.25.25.25.53-.03.35-.33.35-.22 0-.27-.3-.08-.55-.39-.85-.13-.11 0-.11.36.08.6.27.31-.63.53-1.27zm.6 1q.3.16-.21.3L45 6.68q.55-.02 1.07-.08-.02-.1-.24-.41-.11-.14.05-.08.8.3.82.85 0 .39-.27.39-.2 0-.22-.22-.05-.28-.08-.36l-.47.1v3.04l-.14.08q-.33.17-.4-.03V7.02l-.61.13q-.14.39-.28.2l-.3-.64.88-.02q.58-1 1.13-2.1zm-1.64 2.61q.3.09-.08.3-.22 1.17-.7 1.8-.1.11-.07-.03.27-.9.24-2.18zm2.96 1.85h1.51V8.42h-1.5zm0-1.18h1.51v-.94h-1.5zm4.83-1.5q.06-.1.11 0 .03.26.03.45 0 .66-.25 1.18-.32.7-.65.7-.36 0-.36-.34 0-.2.22-.36.71-.69.9-1.62zm1.32-2.91q.36.1.77.35.2.2-.1.28-.04.6-.04 1 1.07-.09 1.62-.12.17-.22.22-.2.63.26.74.4.14.33-.24.35-.8-.08-2.34 0 0 1.52.11 3.12-.08.33-.38.55-.33.2-.44 0-.06-.11-.06-.25 0-.08-.08-.14-.46-.36-.77-.69-.08-.16.11-.1.58.32 1 .43 0-1.46-.04-2.89-.85.06-1.56.25-.11.2-.27.08-.36-.25-.58-.5-.11-.08.03-.35.05-.09.1.02.09.14.2.17.25.06.5.03l1.58-.11-.02-1.13q0-.22-.28-.28-.13 0-.05-.1.16-.2.27-.17zm1.24 2.7q.96.36 1.42.82.44.45.44.91 0 .42-.3.42-.27 0-.38-.3-.33-1-1.24-1.77-.05-.08.06-.08zm1.95-2.15q-.17 0-.33-.22-.25-.33-.66-.5-.08-.05.03-.08 1.18.1 1.18.55 0 .25-.22.25zm-.69.58q-.16 0-.25-.2-.24-.44-.66-.69-.08-.08.06-.08 1.07.22 1.07.72 0 .25-.22.25zm4.5-1.33q.36.14.66.44.08.17-.16.2-.17.36-.28.55 1.07-.08 1.87-.17l.14-.16q.33.2.6.5.14.21-.36.24-.52 1.19-1.1 1.99.58.5.58.85 0 .33-.3.33-.14 0-.22-.14-.25-.35-.44-.55-1.1 1.4-3.13 2.1-.1-.03-.03-.11 1.73-.91 2.8-2.35-.49-.52-1.4-1.02-.8.86-1.62 1.33-.13 0-.05-.11 1.34-1.13 2.22-3.31.17-.3-.1-.41-.14-.06.02-.17.11-.08.3-.03zm.11 1.44q-.5.82-.77 1.13.9.27 1.6.69.4-.58.9-1.74-.99.08-1.54.16-.1-.02-.19-.24zm6.7.6q0 .39-.33.39-.25 0-.38-.28-.44-.85-1.27-1.2-.08-.1.03-.12 1.1.03 1.68.6.27.28.27.61zm3.57-.3q.14-.06.08.08-1.56 2.26-4.12 3.8-.05.3-.3.17-.63-.38-.82-.63-.22-.25 0-.64.05-.05.08 0 .06.25.3.39.2.11.36 0 1.9-.77 4.42-3.17z" />
</svg>
