<svg xmlns="http://www.w3.org/2000/svg" xml:space="preserve" width="128" height="128" viewBox="0 0 33.9 33.9">
  <g transform="matrix(.249 .006 -.006 .25 .2 .3)">
    <g transform="matrix(.265 0 0 .265 1.2 -2.1)">
      <ellipse cx="380" cy="223.4" fill="#1e7be8" rx="130.9" ry="123.9"/>
      <ellipse cx="341.7" cy="385.3" fill="#1e7be8" rx="130.9" ry="123.9"/>
      <ellipse cx="170.4" cy="389.7" fill="#1e7be8" rx="130.9" ry="123.9"/>
      <ellipse cx="127.9" cy="223.3" fill="#1e7be8" rx="130.9" ry="123.9"/>
      <ellipse cx="251.5" cy="121.9" fill="#1e7be8" rx="130.9" ry="123.9"/>
      <ellipse cx="127.2" cy="448.9" fill="none" rx="3" ry="13.6" transform="rotate(-1.3)"/>
    </g>
    <path fill="#fff" d="M66.8 43.8A27.6 27.6 0 0 0 39 71a27.6 27.6 0 0 0 27.8 27.4 27.6 27.6 0 0 0 27.8-27.4 27.6 27.6 0 0 0-27.8-27.3z"/>
    <ellipse cx="71.8" cy="65.8" rx="16.5" ry="16.7"/>
  </g>
</svg>
